<svg aria-hidden="true" style="position: absolute; width: 0; height: 0; overflow: hidden;" version="1.1" xmlns="http://www.w3.org/2000/svg" xmlns:xlink="http://www.w3.org/1999/xlink">
<defs>
<symbol id="1" viewBox="0 0 48 48">
<path d="M21 36.5c0 1.38 1.12 2.5 2.5 2.5s2.5-1.12 2.5-2.5-1.12-2.5-2.5-2.5-2.5 1.12-2.5 2.5zM6 44c0 2.21 1.79 4 4 4h27c2.21 0 4-1.79 4-4l-0-40c0-2.21-1.79-4-4-4h-27c-2.21 0-4 1.79-4 4v40zM13.2 5h20.6c1.22 0 2.2 0.98 2.2 2.2v16.6c0 1.22-0.98 2.2-2.2 2.2l-20.6-0c-1.22 0-2.2-0.98-2.2-2.2v-16.6c0-1.22 0.98-2.2 2.2-2.2zM17 36.5c0-3.59 2.91-6.5 6.5-6.5s6.5 2.91 6.5 6.5-2.91 6.5-6.5 6.5-6.5-2.91-6.5-6.5z"></path>
</symbol>
<symbol id="2" viewBox="0 0 48 48">
<path d="M12 44c0 2.21 1.79 4 4 4h15c2.21 0 4-1.79 4-4v-1.17c0-0.939 0.65-1.73 1.529-1.939 4.801-0.741 8.471-4.891 8.471-9.891 0-2.25-0.74-4.33-2-6v-6.84c0-10.030-8.73-18.16-19.5-18.16s-19.5 8.13-19.5 18.16v6.84c-1.26 1.67-2 3.75-2 6 0 5 3.67 9.15 8.47 9.891 0.88 0.209 1.53 1 1.53 1.939l-0 1.17zM10 24c0-2.76 2.24-5 5-5s5 2.24 5 5-2.24 5-5 5-5-2.24-5-5zM27 24c0-2.76 2.24-5 5-5s5 2.24 5 5-2.24 5-5 5-5-2.24-5-5zM18.569 34.68l3.521-3.52c0.78-0.78 2.040-0.78 2.82 0l3.52 3.52c0.76 0.76 0.76 1.99 0 2.75s-1.99 0.76-2.75 0l-2.18-2.18-2.181 2.18c-0.759 0.76-1.989 0.76-2.75 0-0.758-0.76-0.758-1.991-0-2.75z"></path>
</symbol>
<symbol id="3" viewBox="0 0 48 48">
<path d="M0 32.5c0 1.38 1.12 2.5 2.5 2.5s2.5-1.12 2.5-2.5v-2.3c0-1.22 0.98-2.2 2.2-2.2h0.88c-0.050 0.46-0.080 0.939-0.080 1.43 0 1.95 0.37 3.811 1.040 5.521l-3.040 3.27c-0.57 0.609-1 1.959-1 2.779v4.5c0 1.38 1.12 2.5 2.5 2.5s2.5-1.12 2.5-2.5v-3.061c0-0.449 0.13-0.859 0.36-1.209l1.53-1.631c1.92 2.17 4.11 4.381 7.35 5.26 0.070 0.031 0.15 0.051 0.23 0.070 0.17 0.051 0.35 0.071 0.53 0.071 1.1 0 2-0.9 2-2l0-17c0-1.1 0.9-2 2-2s2 0.9 2 2v17c0 1.1 0.9 2 2 2 0.21 0 0.42-0.029 0.62-0.1l0.25-0.070c3.101-0.859 5.34-3.080 7.239-5.23l1.531 1.631c0.23 0.349 0.36 0.759 0.36 1.208v3.061c0 1.38 1.12 2.5 2.5 2.5s2.5-1.12 2.5-2.5v-4.5c0-0.82-0.43-2.17-1-2.779l-3.040-3.271c0.67-1.71 1.040-3.57 1.040-5.52 0-0.49-0.029-0.97-0.080-1.43h0.88c1.22 0 2.2 0.98 2.2 2.2v2.3c0 1.38 1.12 2.5 2.5 2.5s2.5-1.12 2.5-2.5l-0-4.5c0-2.76-2.24-5-5-5h-4.71c-0.45-0.84-0.96-1.65-1.479-2.46l4.189-4.54c0.57-0.61 1-2.040 1-3v-4.5c0-1.38-1.12-2.5-2.5-2.5s-2.5 1.12-2.5 2.5v3.3c0 0.45-0.13 0.86-0.359 1.21l-2.69 2.88c-1.121-2.18-1.951-4.67-1.951-7.89 0-3.73-2.55-6.86-6-7.75v4.75c0 1.1-0.9 2-2 2s-2-0.9-2-2v-4.75c-3.45 0.89-6 4.020-6 7.75 0 3.21-0.84 5.69-1.96 7.87l-2.68-2.86c-0.23-0.35-0.36-0.76-0.36-1.21v-3.3c0-1.38-1.12-2.5-2.5-2.5s-2.5 1.12-2.5 2.5v4.5c0 0.96 0.43 2.39 1 3l4.17 4.52c-0.53 0.81-1.030 1.63-1.48 2.48h-4.69c-2.76 0-5 2.24-5 5v4.5z"></path>
</symbol>
<symbol id="4" viewBox="0 0 48 48">
<path d="M0 24c0 13.26 10.74 24 24 24s24-10.74 24-24-10.74-24-24-24-24 10.74-24 24zM5 24c0-1.54 0.18-3.040 0.53-4.47l4.47 4.47-1 6 4 4v5.49c-4.84-3.44-8-9.099-8-15.49zM19.63 5.51c1.4-0.34 2.86-0.51 4.37-0.51 1.67 0 3.29 0.22 4.83 0.62l-0.83 1.38 1 1h3l0.83-0.83c0.699 0.37 1.359 0.77 2 1.22l-1.83 0.61-2 2 2 1v1h-2v2c0 0 1.38 1 3 1 1.59 0 0.88-2.19 2-3 1.13-0.81 2.5-0.63 2.5-0.63l0.65 0.17c1.22 1.61 2.189 3.41 2.85 5.36v0.1c0 0-1.41-1-4-1s-5 1-5 1-2.82 0.82-3 3c-0.311 3.75 1 5 1 5l5 3v9.73c-3.27 2.67-7.45 4.27-12 4.27-2.15 0-4.21-0.35-6.14-1.010l5.14-11.99-1-5c0 0-3.97-5-6-5s-3 3-3 3l-2-4 6-4 3-8-0.37-1.49z"></path>
</symbol>
<symbol id="5" viewBox="0 0 48 48">
<path d="M0 45.5c0 1.38 1.12 2.5 2.5 2.5h42c1.38 0 2.5-1.12 2.5-2.5s-1.12-2.5-2.5-2.5h-5.5l-13.141-41.33c-0.349-0.981-1.269-1.67-2.359-1.67s-2.010 0.689-2.36 1.66l-13.14 41.34h-5.5c-1.38 0-2.5 1.12-2.5 2.5zM14.5 38l2.1-7h13.8l2.1 7h-18zM19.3 22l2.4-8h3.6l2.4 8h-8.4z"></path>
</symbol>
<symbol id="6" viewBox="0 0 48 48">
<path d="M6 16.5c0 8.82 6.52 16.11 15 17.32v7.18c0 1.1-0.9 2-2 2h-5.5c-1.38 0-2.5 1.12-2.5 2.5s1.12 2.5 2.5 2.5h20c1.38 0 2.5-1.12 2.5-2.5s-1.12-2.5-2.5-2.5h-5.5c-1.1 0-2-0.9-2-2v-7.18c8.48-1.21 15-8.5 15-17.32l-0-12.5c0-2.21-1.79-4-4-4h-27c-2.21 0-4 1.79-4 4v12.5zM13.2 5h20.6c1.22 0 2.2 0.98 2.2 2.2v5.6c0 1.22-0.98 2.2-2.2 2.2h-20.6c-1.22 0-2.2-0.98-2.2-2.2v-5.6c0-1.22 0.98-2.2 2.2-2.2z"></path>
</symbol>
<symbol id="7" viewBox="0 0 48 48">
<path d="M17 19.37l-16.22 22.25c-0.49 0.67-0.78 1.49-0.78 2.38 0 2.21 1.79 4 4 4h40c2.21 0 4-1.79 4-4 0-0.89-0.29-1.71-0.779-2.38l-16.221-22.25v-14.37h0.5c1.38 0 2.5-1.12 2.5-2.5s-1.12-2.5-2.5-2.5h-15c-1.38 0-2.5 1.12-2.5 2.5s1.12 2.5 2.5 2.5h0.5v14.37zM22 5h4v15l7 10h-18l7-10v-15z"></path>
</symbol>
<symbol id="8" viewBox="0 0 48 48">
<path d="M24 9.203c-1-3.89-6.080-6.2-10-6.2-7.73 0-14 6-14 14 0 15 14.26 19 22 28 0.069 0.1 0.15 0.181 0.24 0.27 0.979 0.971 2.56 0.971 3.539 0 0.091-0.089 0.15-0.17 0.221-0.27 7.75-9.020 22-12.939 22-28 0-8-6.27-14-14-14-3.92 0-9 2.31-10 6.2zM34.65 12.003c-0.94-0.17-1.65-0.99-1.65-1.97 0-1.1 0.9-2.030 2-2.030 1.59 0 3.52 1.13 5.14 2.73 1.65 1.64 2.86 3.83 2.86 5.27 0 1.1-0.9 2-2 2-0.98 0-1.8-0.71-1.971-1.65-0.5-2.010-2.218-3.85-4.379-4.35z"></path>
</symbol>
</defs>
</svg>
